PathFileType	4	(X/Y/Z)	H:\MAC\Pilotos\MDrajagopal3\Trimmed_runO3.trc
DataRate	CameraRate	NumFrames	NumMarkers	Units	OrigDataRate	OrigDataStartFrame	OrigNumFrames
150.00	150.00	       4	78	mm	150.00	47	       123
Frame#	Time	RACR			LACR			C7			CLAV			RASH			RPSH			LASH			LPSH			RUA1			RUA2			RUA3			RLEL			RMEL			RFAsuperior			RFAradius			RFAulna			LUA1			LUA2			LUA3			LLEL			LMEL			LFAsuperior			LFAradius			LFAulna			RASI			LASI			RPSI			LPSI			RTH1			RTH2			RTH3			RLFC			RMFC			RTB1			RTB2			RTB3			RLMAL			RMMAL			RCAL			RTOE			RMT5			LTH1			LTH2			LTH3			LLFC			LMFC			LTB1			LTB2			LTB3			LLMAL			LMMAL			LCAL			LTOE			LMT5			RSJC			LSJC			RHJC			LHJC			RKJC			LKJC			RAJC			LAJC			REJC			LEJC			Mid_ASIS			Mid_PSIS			RASHv			RPSHv			LPSHv			RLFCv			RMFCv			RLMALv			RMMALv			LLFCv			LMFCv			LLMALv			LMMALv			LASHv			
		X1	Y1	Z1	X2	Y2	Z2	X3	Y3	Z3	X4	Y4	Z4	X5	Y5	Z5	X6	Y6	Z6	X7	Y7	Z7	X8	Y8	Z8	X9	Y9	Z9	X10	Y10	Z10	X11	Y11	Z11	X12	Y12	Z12	X13	Y13	Z13	X14	Y14	Z14	X15	Y15	Z15	X16	Y16	Z16	X17	Y17	Z17	X18	Y18	Z18	X19	Y19	Z19	X20	Y20	Z20	X21	Y21	Z21	X22	Y22	Z22	X23	Y23	Z23	X24	Y24	Z24	X25	Y25	Z25	X26	Y26	Z26	X27	Y27	Z27	X28	Y28	Z28	X29	Y29	Z29	X30	Y30	Z30	X31	Y31	Z31	X32	Y32	Z32	X33	Y33	Z33	X34	Y34	Z34	X35	Y35	Z35	X36	Y36	Z36	X37	Y37	Z37	X38	Y38	Z38	X39	Y39	Z39	X40	Y40	Z40	X41	Y41	Z41	X42	Y42	Z42	X43	Y43	Z43	X44	Y44	Z44	X45	Y45	Z45	X46	Y46	Z46	X47	Y47	Z47	X48	Y48	Z48	X49	Y49	Z49	X50	Y50	Z50	X51	Y51	Z51	X52	Y52	Z52	X53	Y53	Z53	X54	Y54	Z54	X55	Y55	Z55	X56	Y56	Z56	X57	Y57	Z57	X58	Y58	Z58	X59	Y59	Z59	X60	Y60	Z60	X61	Y61	Z61	X62	Y62	Z62	X63	Y63	Z63	X64	Y64	Z64	X65	Y65	Z65	X66	Y66	Z66	X67	Y67	Z67	X68	Y68	Z68	X69	Y69	Z69	X70	Y70	Z70	X71	Y71	Z71	X72	Y72	Z72	X73	Y73	Z73	X74	Y74	Z74	X75	Y75	Z75	X76	Y76	Z76	X77	Y77	Z77	X78	Y78	Z78	

47	0.307	860.53381	1424.05688	-44.35350	810.70740	1465.17566	-357.98889	765.01996	1451.58496	-192.13846	913.69324	1383.81567	-183.75899													900.84570	1304.62524	17.14926	933.29651	1235.35596	-6.49685	851.52686	1203.41296	44.65212	899.79199	1155.54260	55.18390	859.24738	1133.08484	-28.61053	993.04816	1184.84106	-35.99489	1053.53235	1190.13635	-94.26483	1091.17334	1133.18408	-67.80024	753.78430	1441.46521	-438.87482	718.02570	1368.13501	-488.30640	654.32819	1414.30444	-447.78772	645.09106	1354.54260	-521.36401	588.67371	1345.16125	-453.07944	679.89679	1225.38257	-514.68396	687.41638	1151.92249	-470.94040	655.68213	1129.65857	-533.97516	818.11700	913.71960	-93.66366	866.00348	922.24054	-315.03232	673.64130	972.74371	-199.90794	684.09686	976.58453	-280.17224	675.64752	833.12537	-81.51593	586.23981	711.65558	-132.10100	625.36688	656.25726	-86.54465							553.25531	399.38101	-147.42525	450.36118	423.47095	-113.99013	436.39490	291.13043	-134.97127							307.48181	227.89725	-217.36185	352.53732	64.86641	-170.24699	387.14844	47.54516	-205.10916	812.35541	859.11566	-402.74670	839.06317	704.50311	-377.22150	929.08148	663.95374	-371.62115							1027.78687	451.19119	-308.28784	939.01318	394.54306	-377.73438	999.17523	270.79541	-331.96133							896.89679	140.22505	-299.00424	1087.00427	91.18185	-304.06973	1060.59180	85.03407	-343.74496																									879.51965	1144.31372	13.28668	616.88239	1349.85193	-487.22174	842.06024	917.98010	-204.34799	678.86908	974.66412	-240.04010	957.21191	1325.11267	-77.92400	869.49030	1352.89832	-3.75080	848.18921	1464.36426	-392.04355	543.68933	566.28595	-102.83377	617.03949	505.32318	-200.59955	337.74832	188.72348	-125.19183	391.03012	168.60715	-197.01797	977.03687	616.00861	-390.41074	970.07141	600.15973	-258.43808	981.66986	147.77837	-340.09332	1018.32904	172.76591	-259.52008	890.13544	1389.45374	-446.43433	
48	0.313	879.80774	1427.39539	-45.59391	827.08893	1467.78955	-357.09174	783.46545	1453.34192	-191.85957	932.12390	1386.95923	-185.16400													920.42828	1309.17358	17.42741	953.12085	1239.59753	-4.17164	871.48895	1208.35803	46.70822	919.75354	1160.72314	57.51513	877.62537	1137.11963	-25.17328	1010.88202	1190.64661	-35.29039	1068.94666	1195.27344	-96.35632	1109.09973	1140.35730	-69.38042	768.94934	1445.00867	-436.93478	732.75830	1372.59485	-486.75760	669.87463	1417.04883	-444.46323	659.04834	1358.76013	-518.40472	604.33447	1347.90564	-449.28506	695.85272	1230.12085	-513.50287	705.21265	1156.42371	-469.94720	673.13776	1133.88513	-532.70258	838.33386	915.03229	-92.25658	886.03674	923.60706	-313.05621	694.15723	975.02936	-197.87407	704.45459	978.75751	-278.31525	694.71039	835.95032	-80.24313	604.35065	715.70190	-131.92798	641.91418	659.84857	-85.70256							566.24731	403.82565	-146.33328	463.92999	430.19983	-113.62312	447.69821	298.00732	-133.93863							319.65491	237.50867	-218.27809	391.41464	52.43407	-201.71324	357.10947	73.54586	-168.30739	832.31805	859.88202	-401.11371	855.82208	703.79382	-374.33771	944.09698	661.86481	-369.49533							1048.25696	451.47437	-307.08545	964.81195	388.90057	-377.66006	1032.47668	269.45670	-329.45822							938.75928	133.87698	-297.08203	1131.66003	94.74529	-297.53787	1106.20862	86.08016	-337.65625																									898.68945	1148.92139	16.17093	631.69141	1353.33289	-483.84491	862.18530	919.31964	-202.65639	699.30591	976.89343	-238.09465	977.50970	1327.90320	-77.58167	889.16718	1356.85522	-4.92141	864.18304	1467.72144	-391.71866	559.22339	571.00684	-103.02316	633.16907	508.75687	-199.52098	346.31830	197.82014	-123.81359	399.51248	176.14221	-195.24928	991.33746	613.04858	-388.49249	985.51685	598.49933	-256.31485	1022.43030	145.53185	-337.57913	1055.84814	173.31401	-256.51300	905.45392	1394.11816	-448.36398	
49	0.320	898.77594	1430.11230	-46.76845	843.46112	1469.77576	-356.14383	801.80640	1454.71716	-191.57376	950.48328	1389.51160	-186.42506													939.46954	1313.11340	17.89908	972.78265	1243.56165	-1.59697	890.89880	1212.59790	48.42778	939.31012	1165.09802	59.76628	895.86359	1140.60278	-21.85749	1028.46094	1195.26111	-34.60412	1084.10046	1198.88525	-98.31949	1126.49585	1146.14380	-70.59918	784.08533	1447.75708	-434.89926	747.58606	1376.09094	-485.03168	685.01337	1419.02869	-440.79303	673.22876	1361.95520	-515.41010	620.12250	1349.37622	-445.45676	712.19855	1233.85986	-512.13141	723.48950	1160.02881	-468.83292	691.22699	1137.31287	-531.37305	858.56873	915.76978	-91.20237	905.88007	924.49255	-311.46445	714.13977	976.69086	-196.13873	725.28595	980.54041	-276.31494	714.12219	838.25848	-78.77982	623.27106	718.96338	-131.58528	659.36047	662.80536	-84.60181							580.21283	407.43851	-145.43506	478.46149	436.15698	-113.05153	459.53775	304.40222	-133.35228							331.49826	247.06248	-220.10306	395.49210	58.73529	-197.34673	361.90182	82.78011	-166.42183	852.05713	859.79456	-399.86655	872.06512	702.38220	-372.28046	959.26837	658.89856	-368.33948							1068.38367	451.13940	-304.80869	990.00507	383.51794	-377.59729	1064.71692	268.65137	-327.01297							979.68970	129.27733	-295.07352	1174.61340	98.79036	-291.28204	1150.01697	87.70297	-331.78247																									917.58685	1152.85034	18.95440	646.67566	1355.66577	-480.43344	882.22437	920.13116	-201.33340	719.71283	978.61560	-236.22684	997.91443	1330.37769	-76.55701	908.28979	1360.10840	-5.96645	880.05811	1470.56360	-391.32278	575.93079	574.84662	-103.02931	650.74030	511.42834	-198.08987	355.58853	206.51357	-123.36069	408.47824	183.56206	-194.62445	1004.95947	609.10571	-387.65256	1000.34778	595.45184	-255.33176	1061.51367	144.26268	-336.06870	1091.43018	173.82573	-254.26802	920.75507	1398.31262	-450.08475	
50	0.327	917.60822	1432.23535	-47.76596	860.11731	1470.97974	-355.52228	820.15845	1455.42053	-191.48303	968.75403	1391.42834	-187.50591													958.02899	1316.58496	18.44773	992.70251	1246.87073	2.28047	909.83142	1216.12488	49.98909	958.29126	1168.68933	61.86210	913.95270	1143.51648	-18.69600	1046.00732	1198.62427	-33.91616	1099.25391	1200.88623	-100.11919	1143.46655	1150.11829	-71.65321	799.52240	1449.48840	-432.72107	762.51813	1378.54993	-483.22171	699.78229	1419.07324	-436.33694	687.51947	1364.12085	-512.27063	636.02692	1349.73401	-441.59183	729.24994	1236.60767	-511.41284	742.06573	1162.83923	-467.58713	709.87738	1139.94751	-530.08398	878.91022	916.47723	-89.75813	925.62695	924.82623	-310.13626	735.26764	978.26630	-193.98666	744.85223	981.43549	-274.73346	733.96130	839.95367	-77.16091	643.24207	721.25183	-131.72496	677.64368	665.17419	-83.28928							594.84692	410.46085	-144.59753	494.01318	441.23694	-112.40162	471.84674	310.26151	-133.10733							343.10388	256.41040	-222.62804	367.24817	92.41953	-164.63753	399.57242	66.80707	-193.20009	871.30640	859.06213	-398.37283	888.12793	700.24396	-370.81863	974.37915	655.26257	-367.36081							1087.46265	450.23911	-303.58978	1014.38354	378.34018	-376.63162	1095.68408	268.21048	-324.85886							1019.19550	126.52983	-292.80643	1215.54077	103.10458	-285.08902	1192.00928	89.79172	-324.80292																									936.12195	1156.10291	21.58305	661.77319	1356.92737	-476.93121	902.26862	920.65173	-199.94720	740.05994	979.85089	-234.36006	1019.60364	1332.20471	-74.29060	927.27655	1362.50317	-7.93552	896.48767	1472.69714	-391.62469	593.62744	577.88641	-103.57845	670.29138	513.07800	-196.19249	365.72836	214.54437	-123.72651	418.23398	190.68137	-194.97488	1018.79926	605.11322	-387.01395	1014.47247	591.45319	-254.68419	1099.31921	143.46945	-334.40399	1126.60962	174.86273	-252.36731	936.31274	1402.35193	-453.22775	
